<svg width="180" height="200" viewBox="0 0 180 200" fill="none" xmlns="http://www.w3.org/2000/svg">
<path d="M100.511 94.8718H79.5997C75.6866 94.8718 72.5144 98.035 72.5144 101.937V153.515C72.5144 157.417 75.6866 160.58 79.5997 160.58H100.511C104.424 160.58 107.596 157.417 107.596 153.515V101.937C107.596 98.035 104.424 94.8718 100.511 94.8718Z" fill="white" stroke="#323232" stroke-width="4" stroke-linecap="round"/>
<path d="M73.4893 137.248V116.245H108.771C106.114 127.015 90.2689 137.83 73.4893 137.248Z" fill="#7E7E7E" fill-opacity="0.45"/>
<path d="M69.4286 92.9728C69.4286 98.9671 64.0029 103.998 57.0858 103.998C50.1687 103.998 44.7429 98.9671 44.7429 92.9728C44.7429 86.9789 50.1687 81.9471 57.0858 81.9471C64.0029 81.9471 69.4286 86.9789 69.4286 92.9728Z" fill="white" stroke="#323232" stroke-width="4"/>
<path d="M112.114 92.9728C112.114 98.9671 117.54 103.998 124.457 103.998C131.374 103.998 136.8 98.9671 136.8 92.9728C136.8 86.9789 131.374 81.9471 124.457 81.9471C117.54 81.9471 112.114 86.9789 112.114 92.9728Z" fill="white" stroke="#323232" stroke-width="4"/>
<path d="M124.972 90.8354C124.972 101.266 121.923 109.214 116.256 114.563C110.58 119.919 102.129 122.808 91.0441 122.808C79.9597 122.808 71.3665 119.919 65.5515 114.555C59.7488 109.202 56.5715 101.254 56.5715 90.8354C56.5715 80.3949 59.7658 69.4995 65.6893 61.24C71.6005 52.9979 80.1886 47.4232 91.0441 47.4232C101.896 47.4232 110.345 52.9943 116.12 61.2308C121.909 69.4877 124.972 80.3851 124.972 90.8354Z" fill="white" stroke="#323232" stroke-width="4" stroke-linecap="round"/>
<path d="M90.9474 89.9871C89.9873 94.2887 89.4858 96.5364 89.4858 101.012C90.7721 101.809 92.0017 102.008 94.1144 101.986" stroke="#323232" stroke-width="4" stroke-linecap="round" stroke-linejoin="round"/>
<path d="M72.9095 93.6138C73.9694 93.6138 74.9095 93.042 75.576 92.1559C76.2425 91.2702 76.6468 90.0579 76.6468 88.7302C76.6468 87.402 76.2425 86.1897 75.576 85.3041C74.9095 84.4179 73.9694 83.8461 72.9095 83.8461C71.849 83.8461 70.9089 84.4179 70.2424 85.3041C69.5764 86.1897 69.1716 87.402 69.1716 88.7302C69.1716 90.0579 69.5764 91.2702 70.2424 92.1559C70.9089 93.042 71.849 93.6138 72.9095 93.6138Z" fill="#323232" stroke="#323232" stroke-linecap="round"/>
<path d="M74.3741 88.8764C75.0842 88.8764 75.6598 88.3024 75.6598 87.5943C75.6598 86.8862 75.0842 86.3123 74.3741 86.3123C73.664 86.3123 73.0884 86.8862 73.0884 87.5943C73.0884 88.3024 73.664 88.8764 74.3741 88.8764Z" fill="white" stroke="#323232"/>
<path d="M109.938 93.6138C110.998 93.6138 111.938 93.042 112.605 92.1559C113.271 91.2702 113.675 90.0579 113.675 88.7302C113.675 87.402 113.271 86.1897 112.605 85.3041C111.938 84.4179 110.998 83.8461 109.938 83.8461C108.878 83.8461 107.937 84.4179 107.271 85.3041C106.605 86.1897 106.2 87.402 106.2 88.7302C106.2 90.0579 106.605 91.2702 107.271 92.1559C107.937 93.042 108.878 93.6138 109.938 93.6138Z" fill="#323232" stroke="#323232" stroke-linecap="round"/>
<path d="M111.403 88.6199C111.971 88.6199 112.431 88.1607 112.431 87.5943C112.431 87.0279 111.971 86.5687 111.403 86.5687C110.835 86.5687 110.374 87.0279 110.374 87.5943C110.374 88.1607 110.835 88.6199 111.403 88.6199Z" fill="white"/>
<path d="M86.4001 107.936C87.943 109.816 91.9544 112.449 95.6573 107.936" stroke="#323232" stroke-width="4" stroke-linecap="round" stroke-linejoin="round"/>
<g filter="url(#filter0_f_224:729)">
<path d="M71.7429 109.231C74.4412 109.231 76.6286 107.968 76.6286 106.41C76.6286 104.853 74.4412 103.59 71.7429 103.59C69.0446 103.59 66.8572 104.853 66.8572 106.41C66.8572 107.968 69.0446 109.231 71.7429 109.231Z" fill="#FC9D80"/>
</g>
<g filter="url(#filter1_f_224:729)">
<path d="M112.372 109.231C115.07 109.231 117.257 107.968 117.257 106.41C117.257 104.853 115.07 103.59 112.372 103.59C109.673 103.59 107.486 104.853 107.486 106.41C107.486 107.968 109.673 109.231 112.372 109.231Z" fill="#FC9D80"/>
</g>
<path d="M49.6285 61.4344C48.785 50.1149 51.9428 44.255 61.4571 41.9473C61.4571 41.9473 89.7428 13.9987 114.686 32.4602C139.628 50.9217 124.2 82.3077 124.2 82.3077C118.286 74.359 115.697 72.7657 116.228 62.7164C94.7092 69.1646 85.7396 67.2549 73.7999 53.9985C72.2473 62.5574 70.4571 65.641 64.2856 69.2308C65.3898 75.5451 58.8856 81.0257 57.0856 82.8205C51.3443 76.5426 50.2575 71.9498 49.6285 61.4344Z" fill="#323232"/>
<path d="M72.8419 139.265C81.1446 153.61 101.25 152.487 107.519 139.395C107.689 139.039 108.074 138.934 108.32 139.046C122.185 145.311 131.289 151.976 137.506 160.677C143.731 169.389 147.138 180.247 149.406 195.054C149.454 195.363 149.211 195.641 148.905 195.641H30.5852C30.2802 195.641 30.0371 195.362 30.0858 195.053C32.5356 179.506 36.5646 168.518 43.1646 159.924C49.7649 151.329 59.0128 145.027 72.0926 138.991C72.3277 138.882 72.6702 138.968 72.8419 139.265Z" fill="white" stroke="#323232" stroke-width="4" stroke-linecap="round" stroke-linejoin="round"/>
<path d="M89.9229 167.094L90.789 168.354L91.6308 167.077L109.403 140.122C118.062 144.118 122.458 147.067 130.114 153.65V193.694H49.8857V153.651C57.545 147.084 62.6421 144.129 71.3839 140.114L89.9229 167.094Z" fill="#323232" stroke="#323232" stroke-width="4"/>
<path d="M85.6846 86.98C90.4556 85.0795 93.0491 85.0323 97.5132 86.98" stroke="#323232" stroke-width="4" stroke-linecap="round"/>
<path d="M61.7142 84.5123L57.656 80.582" stroke="#323232" stroke-width="4"/>
<path d="M120.368 82.2764L124.77 80.3256" stroke="#323232" stroke-width="4"/>
<path fill-rule="evenodd" clip-rule="evenodd" d="M74.4527 75.4206L76.2969 77.26L61.0237 92.4898L60.3026 91.7708C60.2193 91.4416 60.1489 91.1067 60.0907 90.7662C59.919 89.7595 59.8681 88.7595 59.9272 87.7811L72.3379 75.4057C73.0518 75.3549 73.7584 75.3611 74.4527 75.4206Z" fill="white" fill-opacity="0.15"/>
<path d="M85.3719 86.4774C86.4972 93.0733 81.9905 99.3584 75.2791 100.497C68.5676 101.635 62.2301 97.1902 61.1043 90.5943C59.9791 83.9984 64.4863 77.7133 71.1977 76.5748C77.9091 75.4364 84.2467 79.8815 85.3719 86.4774Z" fill="url(#paint0_linear_224:729)" fill-opacity="0.3" stroke="#323232" stroke-width="4"/>
<path fill-rule="evenodd" clip-rule="evenodd" d="M123.37 89.0318C123.406 88.1359 123.35 87.2236 123.193 86.3056C123.177 86.2108 123.16 86.1164 123.142 86.0226L121.855 84.74L105.83 100.72L106.293 101.182C107.689 101.583 109.169 101.761 110.683 101.682L123.37 89.0318Z" fill="white" fill-opacity="0.15"/>
<path d="M122.179 86.4774C123.305 93.0733 118.798 99.3584 112.086 100.497C105.375 101.635 99.0375 97.1902 97.9117 90.5943C96.7864 83.9984 101.294 77.7133 108.005 76.5748C114.716 75.4364 121.054 79.8815 122.179 86.4774Z" fill="url(#paint1_linear_224:729)" fill-opacity="0.3" stroke="#323232" stroke-width="4"/>
<defs>
<filter id="filter0_f_224:729" x="54.8572" y="91.5897" width="33.7715" height="29.6411" filterUnits="userSpaceOnUse" color-interpolation-filters="sRGB">
<feFlood flood-opacity="0" result="BackgroundImageFix"/>
<feBlend mode="normal" in="SourceGraphic" in2="BackgroundImageFix" result="shape"/>
<feGaussianBlur stdDeviation="6" result="effect1_foregroundBlur_224:729"/>
</filter>
<filter id="filter1_f_224:729" x="95.4858" y="91.5897" width="33.7715" height="29.6411" filterUnits="userSpaceOnUse" color-interpolation-filters="sRGB">
<feFlood flood-opacity="0" result="BackgroundImageFix"/>
<feBlend mode="normal" in="SourceGraphic" in2="BackgroundImageFix" result="shape"/>
<feGaussianBlur stdDeviation="6" result="effect1_foregroundBlur_224:729"/>
</filter>
<linearGradient id="paint0_linear_224:729" x1="71.0249" y1="75.5635" x2="83.3135" y2="100.866" gradientUnits="userSpaceOnUse">
<stop stop-color="white"/>
<stop offset="1" stop-color="#C0C8FE" stop-opacity="0"/>
</linearGradient>
<linearGradient id="paint1_linear_224:729" x1="107.832" y1="75.5635" x2="120.121" y2="100.866" gradientUnits="userSpaceOnUse">
<stop stop-color="white"/>
<stop offset="1" stop-color="#C0C8FE" stop-opacity="0"/>
</linearGradient>
</defs>
</svg>
