<svg width="180" height="200" viewBox="0 0 180 200" fill="none" xmlns="http://www.w3.org/2000/svg">
<path fill-rule="evenodd" clip-rule="evenodd" d="M89.9202 16.9231C110.409 16.9231 125.795 28.5111 133.196 46.4595C148.882 50.4757 161.486 63.218 161.486 79.7436C161.486 85.6087 159.789 91.3682 156.884 96.5846C167.326 105.117 173.682 117.094 173.322 130.192C172.638 155.107 155.498 176.903 125.686 176.089C112.992 175.742 100.046 171.352 89.4183 164.501C78.627 171.531 65.3497 175.897 52.4545 175.897C23.3414 175.897 7.19995 153.642 7.19995 128.718C7.19995 117.89 11.6541 107.953 19.0794 100.177C15.8147 94.6939 13.8857 88.561 13.8857 82.3077C13.8857 65.6631 26.6716 52.8569 42.5131 48.9385C51.2428 29.9491 69.1935 16.9231 89.9202 16.9231Z" fill="#323232"/>
<path d="M100.511 94.8718H79.5997C75.6866 94.8718 72.5144 98.035 72.5144 101.937V153.515C72.5144 157.417 75.6866 160.58 79.5997 160.58H100.511C104.424 160.58 107.596 157.417 107.596 153.515V101.937C107.596 98.035 104.424 94.8718 100.511 94.8718Z" fill="white" stroke="#323232" stroke-width="4" stroke-linecap="round"/>
<path d="M73.4893 137.248V116.245H108.771C106.114 127.015 90.2689 137.83 73.4893 137.248Z" fill="#7E7E7E" fill-opacity="0.45"/>
<path d="M67.8857 89.4872C67.8857 95.4815 62.4599 100.513 55.5428 100.513C48.6257 100.513 43.2 95.4815 43.2 89.4872C43.2 83.4928 48.6257 78.4615 55.5428 78.4615C62.4599 78.4615 67.8857 83.4928 67.8857 89.4872Z" fill="white" stroke="#323232" stroke-width="4"/>
<path d="M112.629 89.4872C112.629 95.4815 118.054 100.513 124.972 100.513C131.889 100.513 137.314 95.4815 137.314 89.4872C137.314 83.4928 131.889 78.4615 124.972 78.4615C118.054 78.4615 112.629 83.4928 112.629 89.4872Z" fill="white" stroke="#323232" stroke-width="4"/>
<path d="M124.457 84.2364C124.457 95.7503 121.393 104.53 115.707 110.429C110.027 116.322 101.588 119.487 90.5297 119.487C79.4705 119.487 70.8902 116.322 65.072 110.421C59.2514 104.518 56.0571 95.7385 56.0571 84.2364C56.0571 72.72 59.2622 60.7072 65.2006 51.6046C71.1314 42.5143 79.7189 36.4103 90.5297 36.4103C101.336 36.4103 109.786 42.5095 115.581 51.5959C121.384 60.6964 124.457 72.7113 124.457 84.2364Z" fill="white" stroke="#323232" stroke-width="4" stroke-linecap="round"/>
<path d="M90.5143 83.5897C89.5006 87.0831 88.9714 88.9082 88.9714 92.5425C90.3292 93.1897 91.6267 93.3518 93.8572 93.3333" stroke="#323232" stroke-width="4" stroke-linecap="round" stroke-linejoin="round"/>
<path d="M72.3951 89.3462C73.455 89.3462 74.3951 88.7744 75.0616 87.8882C75.7281 87.0026 76.1324 85.7903 76.1324 84.4626C76.1324 83.1344 75.7281 81.9221 75.0616 81.0364C74.3951 80.1503 73.455 79.5785 72.3951 79.5785C71.3346 79.5785 70.3945 80.1503 69.728 81.0364C69.062 81.9221 68.6572 83.1344 68.6572 84.4626C68.6572 85.7903 69.062 87.0026 69.728 87.8882C70.3945 88.7744 71.3346 89.3462 72.3951 89.3462Z" fill="#323232" stroke="#323232" stroke-linecap="round"/>
<path d="M73.8597 84.6087C74.5698 84.6087 75.1454 84.0347 75.1454 83.3266C75.1454 82.6185 74.5698 82.0446 73.8597 82.0446C73.1496 82.0446 72.574 82.6185 72.574 83.3266C72.574 84.0347 73.1496 84.6087 73.8597 84.6087Z" fill="white" stroke="#323232"/>
<path d="M109.424 89.3462C110.484 89.3462 111.424 88.7744 112.09 87.8882C112.757 87.0026 113.161 85.7903 113.161 84.4626C113.161 83.1344 112.757 81.9221 112.09 81.0364C111.424 80.1503 110.484 79.5785 109.424 79.5785C108.363 79.5785 107.423 80.1503 106.757 81.0364C106.091 81.9221 105.686 83.1344 105.686 84.4626C105.686 85.7903 106.091 87.0026 106.757 87.8882C107.423 88.7744 108.363 89.3462 109.424 89.3462Z" fill="#323232" stroke="#323232" stroke-linecap="round"/>
<path d="M110.888 84.3523C111.456 84.3523 111.917 83.8931 111.917 83.3267C111.917 82.7602 111.456 82.301 110.888 82.301C110.32 82.301 109.86 82.7602 109.86 83.3267C109.86 83.8931 110.32 84.3523 110.888 84.3523Z" fill="white"/>
<path d="M86.3999 101.282C87.9428 103.163 91.9542 105.795 95.657 101.282" stroke="#323232" stroke-width="4" stroke-linecap="round" stroke-linejoin="round"/>
<g filter="url(#filter0_f_199:866)">
<path d="M70.1999 101.538C72.8982 101.538 75.0856 100.276 75.0856 98.718C75.0856 97.1602 72.8982 95.8975 70.1999 95.8975C67.5016 95.8975 65.3142 97.1602 65.3142 98.718C65.3142 100.276 67.5016 101.538 70.1999 101.538Z" fill="#FC9D80"/>
</g>
<g filter="url(#filter1_f_199:866)">
<path d="M110.829 101.538C113.527 101.538 115.714 100.276 115.714 98.718C115.714 97.1602 113.527 95.8975 110.829 95.8975C108.13 95.8975 105.943 97.1602 105.943 98.718C105.943 100.276 108.13 101.538 110.829 101.538Z" fill="#FC9D80"/>
</g>
<path d="M97.7142 48.718C86.4765 70.4621 77.2127 75.2626 52.9713 77.436C48.0857 44.359 55.8827 37.3352 92.3142 31.7949C121.96 41.6518 122.718 51.0836 123.428 77.436C105.651 72.3842 104.063 65.0272 97.7142 48.718Z" fill="#323232"/>
<path d="M85.1704 86.4672C89.9414 84.5667 92.535 84.5195 96.999 86.4672" stroke="#323232" stroke-width="4" stroke-linecap="round"/>
<path d="M61.2001 83.9995L57.1418 80.0692" stroke="#323232" stroke-width="4"/>
<path d="M119.854 81.7636L124.256 79.8129" stroke="#323232" stroke-width="4"/>
<path fill-rule="evenodd" clip-rule="evenodd" d="M73.9383 74.9077L75.7825 76.7472L60.5092 91.9769L59.7882 91.2579C59.7049 90.9287 59.6344 90.5938 59.5763 90.2533C59.4046 89.2467 59.3536 88.2467 59.4128 87.2682L71.8235 74.8928C72.5374 74.842 73.244 74.8482 73.9383 74.9077Z" fill="white" fill-opacity="0.15"/>
<path d="M84.8577 85.9646C85.983 92.5605 81.4763 98.8456 74.7649 99.9841C68.0535 101.123 61.7159 96.6774 60.5902 90.0816C59.4649 83.4857 63.9721 77.2005 70.6835 76.0621C77.3949 74.9236 83.7325 79.3687 84.8577 85.9646Z" fill="url(#paint0_linear_199:866)" fill-opacity="0.3" stroke="#323232" stroke-width="4"/>
<path fill-rule="evenodd" clip-rule="evenodd" d="M122.856 88.519C122.892 87.6231 122.836 86.7108 122.679 85.7928C122.663 85.6979 122.646 85.6036 122.628 85.5097L121.341 84.2272L105.315 100.207L105.779 100.669C107.175 101.07 108.655 101.248 110.169 101.169L122.856 88.519Z" fill="white" fill-opacity="0.15"/>
<path d="M121.665 85.9646C122.79 92.5605 118.284 98.8456 111.572 99.9841C104.861 101.123 98.5233 96.6774 97.3975 90.0816C96.2723 83.4857 100.779 77.2005 107.491 76.0621C114.202 74.9236 120.54 79.3687 121.665 85.9646Z" fill="url(#paint1_linear_199:866)" fill-opacity="0.3" stroke="#323232" stroke-width="4"/>
<path d="M72.8419 139.265C81.1446 153.61 101.25 152.487 107.519 139.395C107.689 139.039 108.074 138.934 108.32 139.046C122.185 145.311 131.289 151.976 137.506 160.677C143.731 169.389 147.138 180.247 149.406 195.054C149.454 195.363 149.211 195.641 148.905 195.641H30.5852C30.2802 195.641 30.0371 195.362 30.0858 195.053C32.5356 179.506 36.5646 168.518 43.1646 159.924C49.7649 151.329 59.0128 145.027 72.0926 138.991C72.3277 138.882 72.6702 138.968 72.8419 139.265Z" fill="white" stroke="#323232" stroke-width="4" stroke-linecap="round" stroke-linejoin="round"/>
<path fill-rule="evenodd" clip-rule="evenodd" d="M57.6 148.073C61.4469 145.505 63.7133 144.293 67.8857 142.137V168.718H113.657V142.725C117.922 144.873 120.169 146.341 123.943 148.874V168.718C126.215 168.718 128.057 170.555 128.057 172.821V194.615H51.9429V172.821C51.9429 170.555 53.785 168.718 56.0572 168.718H57.6V148.073Z" fill="#323232"/>
<path d="M123.943 194.615V176.41C123.943 174.145 122.101 172.308 119.829 172.308H60.1714C57.8993 172.308 56.0571 174.145 56.0571 176.41V194.615" stroke="white" stroke-width="0.5" stroke-linecap="round" stroke-dasharray="4 4"/>
<path d="M60.9429 168.462V147.949" stroke="white" stroke-linecap="round" stroke-dasharray="4 4"/>
<path d="M120.6 168.462V147.949" stroke="white" stroke-linecap="round" stroke-dasharray="4 4"/>
<path d="M61.2 174.872C62.9042 174.872 64.2857 173.494 64.2857 171.795C64.2857 170.095 62.9042 168.718 61.2 168.718C59.4958 168.718 58.1143 170.095 58.1143 171.795C58.1143 173.494 59.4958 174.872 61.2 174.872Z" fill="white"/>
<path d="M119.829 174.872C121.533 174.872 122.914 173.494 122.914 171.795C122.914 170.095 121.533 168.718 119.829 168.718C118.124 168.718 116.743 170.095 116.743 171.795C116.743 173.494 118.124 174.872 119.829 174.872Z" fill="white"/>
<path d="M70.457 185.128C70.457 182.013 72.9899 179.487 76.1142 179.487H103.371C106.496 179.487 109.028 182.013 109.028 185.128V194.872H70.457V185.128Z" fill="white" fill-opacity="0.5"/>
<defs>
<filter id="filter0_f_199:866" x="53.3142" y="83.8975" width="33.7715" height="29.641" filterUnits="userSpaceOnUse" color-interpolation-filters="sRGB">
<feFlood flood-opacity="0" result="BackgroundImageFix"/>
<feBlend mode="normal" in="SourceGraphic" in2="BackgroundImageFix" result="shape"/>
<feGaussianBlur stdDeviation="6" result="effect1_foregroundBlur_199:866"/>
</filter>
<filter id="filter1_f_199:866" x="93.9429" y="83.8975" width="33.7715" height="29.641" filterUnits="userSpaceOnUse" color-interpolation-filters="sRGB">
<feFlood flood-opacity="0" result="BackgroundImageFix"/>
<feBlend mode="normal" in="SourceGraphic" in2="BackgroundImageFix" result="shape"/>
<feGaussianBlur stdDeviation="6" result="effect1_foregroundBlur_199:866"/>
</filter>
<linearGradient id="paint0_linear_199:866" x1="70.5107" y1="75.0508" x2="82.7993" y2="100.353" gradientUnits="userSpaceOnUse">
<stop stop-color="white"/>
<stop offset="1" stop-color="#C0C8FE" stop-opacity="0"/>
</linearGradient>
<linearGradient id="paint1_linear_199:866" x1="107.318" y1="75.0508" x2="119.607" y2="100.353" gradientUnits="userSpaceOnUse">
<stop stop-color="white"/>
<stop offset="1" stop-color="#C0C8FE" stop-opacity="0"/>
</linearGradient>
</defs>
</svg>
