<svg width="180" height="200" viewBox="0 0 180 200" fill="none" xmlns="http://www.w3.org/2000/svg">
<path d="M153.675 136.41C157.083 136.41 159.857 133.654 159.746 130.257C159.324 117.275 157.567 104.49 154.541 92.4508C151.04 78.5138 145.907 65.8503 139.436 55.1836C132.965 44.5168 125.283 36.0554 116.828 30.2826C108.373 24.5097 99.3118 21.5385 90.1606 21.5385C81.0094 21.5385 71.9476 24.5097 63.4928 30.2826C55.0379 36.0554 47.3561 44.5168 40.8852 55.1836C34.4143 65.8503 29.2812 78.5138 25.7792 92.4508C22.7541 104.49 20.9972 117.275 20.5747 130.257C20.4642 133.654 23.2377 136.41 26.6461 136.41H153.675Z" fill="#323232"/>
<path d="M100.511 94.8718H79.5997C75.6866 94.8718 72.5144 98.035 72.5144 101.937V153.515C72.5144 157.417 75.6866 160.58 79.5997 160.58H100.511C104.424 160.58 107.596 157.417 107.596 153.515V101.937C107.596 98.035 104.424 94.8718 100.511 94.8718Z" fill="white" stroke="#323232" stroke-width="4" stroke-linecap="round"/>
<path d="M73.4893 137.248V116.245H108.771C106.114 127.015 90.2689 137.83 73.4893 137.248Z" fill="#7E7E7E" fill-opacity="0.45"/>
<path d="M67.8857 93.5897C67.8857 99.5841 62.4599 104.615 55.5428 104.615C48.6257 104.615 43.2 99.5841 43.2 93.5897C43.2 87.5954 48.6257 82.5641 55.5428 82.5641C62.4599 82.5641 67.8857 87.5954 67.8857 93.5897Z" fill="white" stroke="#323232" stroke-width="4"/>
<path d="M112.629 93.5897C112.629 99.5841 118.054 104.615 124.972 104.615C131.889 104.615 137.314 99.5841 137.314 93.5897C137.314 87.5954 131.889 82.5641 124.972 82.5641C118.054 82.5641 112.629 87.5954 112.629 93.5897Z" fill="white" stroke="#323232" stroke-width="4"/>
<path d="M124.457 88.339C124.457 99.8528 121.393 108.633 115.707 114.532C110.027 120.425 101.588 123.59 90.5297 123.59C79.4705 123.59 70.8902 120.424 65.072 114.524C59.2514 108.621 56.0571 99.841 56.0571 88.339C56.0571 76.8226 59.2622 64.8097 65.2006 55.7072C71.1314 46.6168 79.7189 40.5128 90.5297 40.5128C101.336 40.5128 109.786 46.612 115.581 55.6985C121.384 64.799 124.457 76.8138 124.457 88.339Z" fill="white" stroke="#323232" stroke-width="4" stroke-linecap="round"/>
<path d="M90.5143 87.6923C89.5006 91.1857 88.9714 93.0108 88.9714 96.6451C90.3292 97.2923 91.6267 97.4544 93.8572 97.4359" stroke="#323232" stroke-width="4" stroke-linecap="round" stroke-linejoin="round"/>
<path d="M72.3951 93.4487C73.455 93.4487 74.3951 92.8769 75.0616 91.9908C75.7281 91.1051 76.1324 89.8928 76.1324 88.5651C76.1324 87.2369 75.7281 86.0246 75.0616 85.139C74.3951 84.2528 73.455 83.681 72.3951 83.681C71.3346 83.681 70.3945 84.2528 69.728 85.139C69.062 86.0246 68.6572 87.2369 68.6572 88.5651C68.6572 89.8928 69.062 91.1051 69.728 91.9908C70.3945 92.8769 71.3346 93.4487 72.3951 93.4487Z" fill="#323232" stroke="#323232" stroke-linecap="round"/>
<path d="M73.8597 88.7113C74.5698 88.7113 75.1454 88.1373 75.1454 87.4292C75.1454 86.7211 74.5698 86.1472 73.8597 86.1472C73.1496 86.1472 72.574 86.7211 72.574 87.4292C72.574 88.1373 73.1496 88.7113 73.8597 88.7113Z" fill="white" stroke="#323232"/>
<path d="M109.424 93.4487C110.484 93.4487 111.424 92.8769 112.09 91.9908C112.757 91.1051 113.161 89.8928 113.161 88.5651C113.161 87.2369 112.757 86.0246 112.09 85.139C111.424 84.2528 110.484 83.681 109.424 83.681C108.363 83.681 107.423 84.2528 106.757 85.139C106.091 86.0246 105.686 87.2369 105.686 88.5651C105.686 89.8928 106.091 91.1051 106.757 91.9908C107.423 92.8769 108.363 93.4487 109.424 93.4487Z" fill="#323232" stroke="#323232" stroke-linecap="round"/>
<path d="M110.888 88.4548C111.456 88.4548 111.917 87.9957 111.917 87.4292C111.917 86.8628 111.456 86.4036 110.888 86.4036C110.32 86.4036 109.86 86.8628 109.86 87.4292C109.86 87.9957 110.32 88.4548 110.888 88.4548Z" fill="white"/>
<path d="M86.3999 105.385C87.9428 107.265 91.9542 109.897 95.657 105.385" stroke="#323232" stroke-width="4" stroke-linecap="round" stroke-linejoin="round"/>
<g filter="url(#filter0_f_224:756)">
<path d="M70.1999 105.641C72.8982 105.641 75.0856 104.378 75.0856 102.821C75.0856 101.263 72.8982 100 70.1999 100C67.5016 100 65.3142 101.263 65.3142 102.821C65.3142 104.378 67.5016 105.641 70.1999 105.641Z" fill="#FC9D80"/>
</g>
<g filter="url(#filter1_f_224:756)">
<path d="M110.829 105.641C113.527 105.641 115.714 104.378 115.714 102.821C115.714 101.263 113.527 100 110.829 100C108.13 100 105.943 101.263 105.943 102.821C105.943 104.378 108.13 105.641 110.829 105.641Z" fill="#FC9D80"/>
</g>
<path d="M98.7428 54.359C87.5051 76.1031 78.2413 80.9036 53.9999 83.0769C49.1142 50 56.9113 42.9762 93.3428 37.4359C122.988 47.2928 123.747 56.7246 124.457 83.0769C106.68 78.0251 105.091 70.6682 98.7428 54.359Z" fill="#323232"/>
<path d="M72.8419 139.265C81.1446 153.61 101.25 152.487 107.519 139.395C107.689 139.039 108.074 138.934 108.32 139.046C122.185 145.311 131.289 151.976 137.506 160.677C143.731 169.389 147.138 180.247 149.406 195.054C149.454 195.363 149.211 195.641 148.905 195.641H30.5852C30.2802 195.641 30.0371 195.362 30.0858 195.053C32.5356 179.506 36.5646 168.518 43.1646 159.924C49.7649 151.329 59.0128 145.027 72.0926 138.991C72.3277 138.882 72.6702 138.968 72.8419 139.265Z" fill="white" stroke="#323232" stroke-width="4" stroke-linecap="round" stroke-linejoin="round"/>
<path d="M58.5452 146.245V176.502" stroke="#323232" stroke-width="4"/>
<path d="M66.2595 142.655V172.912" stroke="#323232" stroke-width="4"/>
<path d="M120.26 145.219V176.502" stroke="#323232" stroke-width="4"/>
<path d="M112.545 141.117V172.399" stroke="#323232" stroke-width="4"/>
<path d="M57.5166 167.784H121.802C124.643 167.784 126.945 170.08 126.945 172.912V195.476H52.3738V172.912C52.3738 170.08 54.6762 167.784 57.5166 167.784Z" fill="white" stroke="#323232" stroke-width="4"/>
<path d="M61.6073 180.332C64.1636 180.332 66.2359 178.265 66.2359 175.716C66.2359 173.167 64.1636 171.101 61.6073 171.101C59.051 171.101 56.9788 173.167 56.9788 175.716C56.9788 178.265 59.051 180.332 61.6073 180.332Z" fill="#323232"/>
<path d="M116.122 180.332C118.678 180.332 120.75 178.265 120.75 175.716C120.75 173.167 118.678 171.101 116.122 171.101C113.565 171.101 111.493 173.167 111.493 175.716C111.493 178.265 113.565 180.332 116.122 180.332Z" fill="#323232"/>
<path d="M85.6846 86.98C90.4556 85.0795 93.0491 85.0323 97.5132 86.98" stroke="#323232" stroke-width="4" stroke-linecap="round"/>
<path d="M61.7142 84.5123L57.656 80.582" stroke="#323232" stroke-width="4"/>
<path d="M120.368 82.2764L124.77 80.3256" stroke="#323232" stroke-width="4"/>
<path fill-rule="evenodd" clip-rule="evenodd" d="M74.4527 75.4206L76.2969 77.26L61.0237 92.4898L60.3026 91.7708C60.2193 91.4416 60.1489 91.1067 60.0907 90.7662C59.919 89.7595 59.8681 88.7595 59.9272 87.7811L72.3379 75.4057C73.0518 75.3549 73.7584 75.3611 74.4527 75.4206Z" fill="white" fill-opacity="0.15"/>
<path d="M85.3719 86.4775C86.4972 93.0733 81.9905 99.3585 75.2791 100.497C68.5676 101.635 62.2301 97.1903 61.1043 90.5944C59.9791 83.9985 64.4863 77.7133 71.1977 76.5749C77.9091 75.4364 84.2467 79.8816 85.3719 86.4775Z" fill="url(#paint0_linear_224:756)" fill-opacity="0.3" stroke="#323232" stroke-width="4"/>
<path fill-rule="evenodd" clip-rule="evenodd" d="M123.37 89.0318C123.406 88.1359 123.35 87.2236 123.193 86.3056C123.177 86.2108 123.16 86.1164 123.142 86.0226L121.855 84.74L105.83 100.72L106.293 101.182C107.689 101.583 109.169 101.761 110.683 101.682L123.37 89.0318Z" fill="white" fill-opacity="0.15"/>
<path d="M122.179 86.4775C123.305 93.0733 118.798 99.3585 112.086 100.497C105.375 101.635 99.0375 97.1903 97.9117 90.5944C96.7864 83.9985 101.294 77.7133 108.005 76.5749C114.716 75.4364 121.054 79.8816 122.179 86.4775Z" fill="url(#paint1_linear_224:756)" fill-opacity="0.3" stroke="#323232" stroke-width="4"/>
<defs>
<filter id="filter0_f_224:756" x="53.3142" y="88" width="33.7715" height="29.641" filterUnits="userSpaceOnUse" color-interpolation-filters="sRGB">
<feFlood flood-opacity="0" result="BackgroundImageFix"/>
<feBlend mode="normal" in="SourceGraphic" in2="BackgroundImageFix" result="shape"/>
<feGaussianBlur stdDeviation="6" result="effect1_foregroundBlur_224:756"/>
</filter>
<filter id="filter1_f_224:756" x="93.9429" y="88" width="33.7715" height="29.641" filterUnits="userSpaceOnUse" color-interpolation-filters="sRGB">
<feFlood flood-opacity="0" result="BackgroundImageFix"/>
<feBlend mode="normal" in="SourceGraphic" in2="BackgroundImageFix" result="shape"/>
<feGaussianBlur stdDeviation="6" result="effect1_foregroundBlur_224:756"/>
</filter>
<linearGradient id="paint0_linear_224:756" x1="71.0249" y1="75.5636" x2="83.3135" y2="100.866" gradientUnits="userSpaceOnUse">
<stop stop-color="white"/>
<stop offset="1" stop-color="#C0C8FE" stop-opacity="0"/>
</linearGradient>
<linearGradient id="paint1_linear_224:756" x1="107.832" y1="75.5636" x2="120.121" y2="100.866" gradientUnits="userSpaceOnUse">
<stop stop-color="white"/>
<stop offset="1" stop-color="#C0C8FE" stop-opacity="0"/>
</linearGradient>
</defs>
</svg>
