<svg width="180" height="200" viewBox="0 0 180 200" fill="none" xmlns="http://www.w3.org/2000/svg">
<path d="M155.829 117.66C155.829 157.17 118.968 166.667 91.9322 166.667C64.8967 166.667 24.1714 157.17 24.1714 117.66C24.1714 78.1513 46.3289 23.8724 91.9322 23.5908C137.536 23.3092 155.829 78.1513 155.829 117.66Z" fill="#323232"/>
<path d="M100.511 94.8718H79.5997C75.6866 94.8718 72.5144 98.035 72.5144 101.937V153.515C72.5144 157.417 75.6866 160.58 79.5997 160.58H100.511C104.424 160.58 107.596 157.417 107.596 153.515V101.937C107.596 98.035 104.424 94.8718 100.511 94.8718Z" fill="white" stroke="#323232" stroke-width="4" stroke-linecap="round"/>
<path d="M73.4893 137.248V116.245H108.771C106.114 127.015 90.2689 137.83 73.4893 137.248Z" fill="#7E7E7E" fill-opacity="0.45"/>
<path d="M68.4001 92.0513C68.4001 98.0457 62.9744 103.077 56.0572 103.077C49.1401 103.077 43.7144 98.0457 43.7144 92.0513C43.7144 86.0569 49.1401 81.0256 56.0572 81.0256C62.9744 81.0256 68.4001 86.0569 68.4001 92.0513Z" fill="white" stroke="#323232" stroke-width="4"/>
<path d="M113.143 92.0513C113.143 98.0457 118.569 103.077 125.486 103.077C132.403 103.077 137.829 98.0457 137.829 92.0513C137.829 86.0569 132.403 81.0256 125.486 81.0256C118.569 81.0256 113.143 86.0569 113.143 92.0513Z" fill="white" stroke="#323232" stroke-width="4"/>
<path d="M124.972 86.8005C124.972 98.3144 121.907 107.094 116.221 112.993C110.541 118.886 102.102 122.051 91.0441 122.051C79.9849 122.051 71.4046 118.886 65.5864 112.985C59.7658 107.082 56.5715 98.3026 56.5715 86.8005C56.5715 75.2841 59.7766 63.2713 65.715 54.1687C71.6458 45.0784 80.2333 38.9744 91.0441 38.9744C101.851 38.9744 110.3 45.0735 116.095 54.16C121.899 63.2605 124.972 75.2754 124.972 86.8005Z" fill="white" stroke="#323232" stroke-width="4" stroke-linecap="round"/>
<path d="M91.0285 86.1538C90.0148 89.6471 89.4856 91.4723 89.4856 95.1066C90.8433 95.7538 92.1409 95.9159 94.3713 95.8974" stroke="#323232" stroke-width="4" stroke-linecap="round" stroke-linejoin="round"/>
<path d="M72.9092 91.9103C73.9692 91.9103 74.9093 91.3385 75.5758 90.4523C76.2423 89.5667 76.6465 88.3544 76.6465 87.0267C76.6465 85.6985 76.2423 84.4862 75.5758 83.6005C74.9093 82.7144 73.9692 82.1426 72.9092 82.1426C71.8488 82.1426 70.9086 82.7144 70.2421 83.6005C69.5761 84.4862 69.1714 85.6985 69.1714 87.0267C69.1714 88.3544 69.5761 89.5667 70.2421 90.4523C70.9086 91.3385 71.8488 91.9103 72.9092 91.9103Z" fill="#323232" stroke="#323232" stroke-linecap="round"/>
<path d="M74.3738 87.1727C75.0839 87.1727 75.6596 86.5988 75.6596 85.8907C75.6596 85.1826 75.0839 84.6086 74.3738 84.6086C73.6638 84.6086 73.0881 85.1826 73.0881 85.8907C73.0881 86.5988 73.6638 87.1727 74.3738 87.1727Z" fill="white" stroke="#323232"/>
<path d="M109.938 91.9103C110.998 91.9103 111.938 91.3385 112.604 90.4523C113.271 89.5667 113.675 88.3544 113.675 87.0267C113.675 85.6985 113.271 84.4862 112.604 83.6005C111.938 82.7144 110.998 82.1426 109.938 82.1426C108.877 82.1426 107.937 82.7144 107.271 83.6005C106.605 84.4862 106.2 85.6985 106.2 87.0267C106.2 88.3544 106.605 89.5667 107.271 90.4523C107.937 91.3385 108.877 91.9103 109.938 91.9103Z" fill="#323232" stroke="#323232" stroke-linecap="round"/>
<path d="M111.403 86.9164C111.971 86.9164 112.431 86.4572 112.431 85.8908C112.431 85.3243 111.971 84.8651 111.403 84.8651C110.835 84.8651 110.374 85.3243 110.374 85.8908C110.374 86.4572 110.835 86.9164 111.403 86.9164Z" fill="white"/>
<path d="M86.9143 103.846C88.4572 105.727 92.4686 108.359 96.1715 103.846" stroke="#323232" stroke-width="4" stroke-linecap="round" stroke-linejoin="round"/>
<g filter="url(#filter0_f_199:838)">
<path d="M70.7143 104.103C73.4126 104.103 75.6 102.84 75.6 101.282C75.6 99.7243 73.4126 98.4615 70.7143 98.4615C68.016 98.4615 65.8286 99.7243 65.8286 101.282C65.8286 102.84 68.016 104.103 70.7143 104.103Z" fill="#FC9D80"/>
</g>
<g filter="url(#filter1_f_199:838)">
<path d="M111.343 104.103C114.041 104.103 116.228 102.84 116.228 101.282C116.228 99.7243 114.041 98.4615 111.343 98.4615C108.644 98.4615 106.457 99.7243 106.457 101.282C106.457 102.84 108.644 104.103 111.343 104.103Z" fill="#FC9D80"/>
</g>
<path d="M98.2286 53.8462C86.9909 75.5903 77.7271 80.3908 53.4857 82.5641C48.6001 49.4872 56.3971 42.4634 92.8286 36.9231C122.474 46.78 123.233 56.2118 123.943 82.5641C106.166 77.5123 104.577 70.1554 98.2286 53.8462Z" fill="#323232"/>
<path d="M85.1704 86.4672C89.9414 84.5667 92.535 84.5195 96.999 86.4672" stroke="#323232" stroke-width="4" stroke-linecap="round"/>
<path d="M61.2001 83.9995L57.1418 80.0692" stroke="#323232" stroke-width="4"/>
<path d="M119.854 81.7636L124.256 79.8129" stroke="#323232" stroke-width="4"/>
<path fill-rule="evenodd" clip-rule="evenodd" d="M73.9383 74.9077L75.7825 76.7472L60.5092 91.9769L59.7882 91.2579C59.7049 90.9287 59.6344 90.5938 59.5763 90.2533C59.4046 89.2466 59.3536 88.2466 59.4128 87.2682L71.8235 74.8928C72.5374 74.842 73.244 74.8482 73.9383 74.9077Z" fill="white" fill-opacity="0.15"/>
<path d="M84.8577 85.9646C85.983 92.5605 81.4763 98.8457 74.7649 99.9841C68.0535 101.123 61.7159 96.6775 60.5902 90.0816C59.4649 83.4857 63.9721 77.2005 70.6835 76.0621C77.3949 74.9236 83.7325 79.3687 84.8577 85.9646Z" fill="url(#paint0_linear_199:838)" fill-opacity="0.3" stroke="#323232" stroke-width="4"/>
<path fill-rule="evenodd" clip-rule="evenodd" d="M122.856 88.519C122.892 87.6231 122.836 86.7108 122.679 85.7928C122.663 85.6979 122.646 85.6036 122.628 85.5097L121.341 84.2272L105.315 100.207L105.779 100.669C107.175 101.07 108.655 101.248 110.169 101.169L122.856 88.519Z" fill="white" fill-opacity="0.15"/>
<path d="M121.665 85.9646C122.79 92.5605 118.284 98.8457 111.572 99.9841C104.861 101.123 98.5233 96.6775 97.3975 90.0816C96.2723 83.4857 100.779 77.2005 107.491 76.0621C114.202 74.9236 120.54 79.3687 121.665 85.9646Z" fill="url(#paint1_linear_199:838)" fill-opacity="0.3" stroke="#323232" stroke-width="4"/>
<path d="M72.8419 139.265C81.1446 153.61 101.25 152.487 107.519 139.395C107.689 139.039 108.074 138.934 108.32 139.046C122.185 145.311 131.289 151.976 137.506 160.677C143.731 169.389 147.138 180.247 149.406 195.054C149.454 195.363 149.211 195.641 148.905 195.641H30.5852C30.2802 195.641 30.0371 195.362 30.0858 195.053C32.5356 179.506 36.5646 168.518 43.1646 159.924C49.7649 151.329 59.0128 145.027 72.0926 138.991C72.3277 138.882 72.6702 138.968 72.8419 139.265Z" fill="white" stroke="#323232" stroke-width="4" stroke-linecap="round" stroke-linejoin="round"/>
<path d="M30.0858 195.053C32.5104 179.666 36.4818 168.745 42.961 160.191C49.4395 151.637 58.4995 145.35 71.2888 139.365C71.6159 139.211 72.0001 139.448 72.0001 139.82V195.128C72.0001 195.411 71.7697 195.641 71.4858 195.641H30.5852C30.2803 195.641 30.0371 195.362 30.0858 195.053Z" fill="#323232" stroke="#323232" stroke-width="4" stroke-linecap="round" stroke-linejoin="round"/>
<path d="M149.914 195.053C147.49 179.666 143.518 168.745 137.039 160.191C130.561 151.637 121.501 145.35 108.711 139.365C108.384 139.211 108 139.448 108 139.82V195.128C108 195.411 108.23 195.641 108.514 195.641H149.415C149.72 195.641 149.963 195.362 149.914 195.053Z" fill="#323232" stroke="#323232" stroke-width="4" stroke-linecap="round" stroke-linejoin="round"/>
<defs>
<filter id="filter0_f_199:838" x="53.8286" y="86.4615" width="33.7715" height="29.641" filterUnits="userSpaceOnUse" color-interpolation-filters="sRGB">
<feFlood flood-opacity="0" result="BackgroundImageFix"/>
<feBlend mode="normal" in="SourceGraphic" in2="BackgroundImageFix" result="shape"/>
<feGaussianBlur stdDeviation="6" result="effect1_foregroundBlur_199:838"/>
</filter>
<filter id="filter1_f_199:838" x="94.457" y="86.4615" width="33.7715" height="29.641" filterUnits="userSpaceOnUse" color-interpolation-filters="sRGB">
<feFlood flood-opacity="0" result="BackgroundImageFix"/>
<feBlend mode="normal" in="SourceGraphic" in2="BackgroundImageFix" result="shape"/>
<feGaussianBlur stdDeviation="6" result="effect1_foregroundBlur_199:838"/>
</filter>
<linearGradient id="paint0_linear_199:838" x1="70.5107" y1="75.0508" x2="82.7993" y2="100.353" gradientUnits="userSpaceOnUse">
<stop stop-color="white"/>
<stop offset="1" stop-color="#C0C8FE" stop-opacity="0"/>
</linearGradient>
<linearGradient id="paint1_linear_199:838" x1="107.318" y1="75.0508" x2="119.607" y2="100.353" gradientUnits="userSpaceOnUse">
<stop stop-color="white"/>
<stop offset="1" stop-color="#C0C8FE" stop-opacity="0"/>
</linearGradient>
</defs>
</svg>
