<svg width="180" height="200" viewBox="0 0 180 200" fill="none" xmlns="http://www.w3.org/2000/svg">
<path d="M100.511 94.8718H79.5997C75.6866 94.8718 72.5144 98.035 72.5144 101.937V153.515C72.5144 157.417 75.6866 160.58 79.5997 160.58H100.511C104.424 160.58 107.596 157.417 107.596 153.515V101.937C107.596 98.035 104.424 94.8718 100.511 94.8718Z" fill="white" stroke="#323232" stroke-width="4" stroke-linecap="round"/>
<path d="M73.4893 137.248V116.245H108.771C106.114 127.015 90.2689 137.83 73.4893 137.248Z" fill="#7E7E7E" fill-opacity="0.45"/>
<path d="M68.9142 91.3734C68.9142 97.3677 63.4885 102.399 56.5714 102.399C49.6543 102.399 44.2285 97.3677 44.2285 91.3734C44.2285 85.379 49.6543 80.3477 56.5714 80.3477C63.4885 80.3477 68.9142 85.379 68.9142 91.3734Z" fill="white" stroke="#323232" stroke-width="4"/>
<path d="M111.6 91.3734C111.6 97.3677 117.026 102.399 123.943 102.399C130.86 102.399 136.286 97.3677 136.286 91.3734C136.286 85.379 130.86 80.3477 123.943 80.3477C117.026 80.3477 111.6 85.379 111.6 91.3734Z" fill="white" stroke="#323232" stroke-width="4"/>
<path d="M124.457 87.8261C124.457 99.34 121.393 108.12 115.707 114.019C110.027 119.912 101.588 123.077 90.5297 123.077C79.4705 123.077 70.8902 119.911 65.072 114.011C59.2514 108.108 56.0571 99.3282 56.0571 87.8261C56.0571 76.3256 59.2493 68.0784 65.0402 62.6928C70.8439 57.2954 79.4258 54.6154 90.5297 54.6154C101.634 54.6154 110.074 57.2954 115.738 62.6851C121.395 68.0661 124.457 76.3138 124.457 87.8261Z" fill="white" stroke="#323232" stroke-width="4" stroke-linecap="round"/>
<path d="M90.5143 95.8975C89.5006 99.3908 88.9714 101.216 88.9714 104.85C90.3292 105.497 91.6267 105.66 93.8572 105.641" stroke="#323232" stroke-width="4" stroke-linecap="round" stroke-linejoin="round"/>
<path d="M72.3951 102.679C73.455 102.679 74.3951 102.108 75.0616 101.222C75.7281 100.336 76.1324 99.1236 76.1324 97.7959C76.1324 96.4677 75.7281 95.2554 75.0616 94.3698C74.3951 93.4836 73.455 92.9118 72.3951 92.9118C71.3346 92.9118 70.3945 93.4836 69.728 94.3698C69.062 95.2554 68.6572 96.4677 68.6572 97.7959C68.6572 99.1236 69.062 100.336 69.728 101.222C70.3945 102.108 71.3346 102.679 72.3951 102.679Z" fill="#323232" stroke="#323232" stroke-linecap="round"/>
<path d="M73.8597 97.942C74.5698 97.942 75.1454 97.368 75.1454 96.66C75.1454 95.9519 74.5698 95.3779 73.8597 95.3779C73.1496 95.3779 72.574 95.9519 72.574 96.66C72.574 97.368 73.1496 97.942 73.8597 97.942Z" fill="white" stroke="#323232"/>
<path d="M109.424 102.679C110.484 102.679 111.424 102.108 112.09 101.222C112.757 100.336 113.161 99.1236 113.161 97.7959C113.161 96.4677 112.757 95.2554 112.09 94.3698C111.424 93.4836 110.484 92.9118 109.424 92.9118C108.363 92.9118 107.423 93.4836 106.757 94.3698C106.091 95.2554 105.686 96.4677 105.686 97.7959C105.686 99.1236 106.091 100.336 106.757 101.222C107.423 102.108 108.363 102.679 109.424 102.679Z" fill="#323232" stroke="#323232" stroke-linecap="round"/>
<path d="M110.888 97.6856C111.456 97.6856 111.917 97.2264 111.917 96.66C111.917 96.0935 111.456 95.6343 110.888 95.6343C110.32 95.6343 109.86 96.0935 109.86 96.66C109.86 97.2264 110.32 97.6856 110.888 97.6856Z" fill="white"/>
<path d="M86.9143 111.63C88.4572 113.51 92.4686 116.143 96.1715 111.63" stroke="#323232" stroke-width="4" stroke-linecap="round" stroke-linejoin="round"/>
<g filter="url(#filter0_f_224:848)">
<path d="M70.1999 111.282C72.8982 111.282 75.0856 110.019 75.0856 108.462C75.0856 106.904 72.8982 105.641 70.1999 105.641C67.5016 105.641 65.3142 106.904 65.3142 108.462C65.3142 110.019 67.5016 111.282 70.1999 111.282Z" fill="#FC9D80"/>
</g>
<g filter="url(#filter1_f_224:848)">
<path d="M110.829 111.282C113.527 111.282 115.714 110.019 115.714 108.462C115.714 106.904 113.527 105.641 110.829 105.641C108.13 105.641 105.943 106.904 105.943 108.462C105.943 110.019 108.13 111.282 110.829 111.282Z" fill="#FC9D80"/>
</g>
<path d="M49.6285 68.2051C47.9011 83.5923 56.057 94.1026 57.5999 95.3846C57.5999 95.3846 59.261 81.7728 65.7189 71.0256C85.4973 78.1267 93.64 78.3579 113.4 71.0256C116.743 76.6667 121.114 84.8718 123.046 95.3846C126.257 94.1026 131.347 70.4846 129.6 59.4872C127.852 48.4895 119.387 49.2898 119.387 49.2898C119.387 49.2898 125.486 43.8312 123.046 38.3726C120.607 32.914 109.019 38.3726 109.019 38.3726C109.019 38.3726 114.508 30.4879 105.36 28.0619C96.212 25.6359 85.2345 35.9466 85.2345 35.9466C85.2345 35.9466 89.5036 28.0619 81.5754 28.0619C73.6472 28.0619 65.7189 43.8312 65.7189 43.8312C65.7189 43.8312 63.8305 37.643 60.1713 41.282C56.5122 44.9211 58.4006 57.781 58.4006 57.781C58.4006 57.781 51.356 52.8179 49.6285 68.2051Z" fill="#323232"/>
<path d="M72.8419 139.265C81.1446 153.61 101.25 152.487 107.519 139.395C107.689 139.039 108.074 138.934 108.32 139.046C122.185 145.311 131.289 151.976 137.506 160.677C143.731 169.389 147.138 180.247 149.406 195.054C149.454 195.363 149.211 195.641 148.905 195.641H30.5852C30.2802 195.641 30.0371 195.362 30.0858 195.053C32.5356 179.506 36.5646 168.518 43.1646 159.924C49.7649 151.329 59.0128 145.027 72.0926 138.991C72.3277 138.882 72.6702 138.968 72.8419 139.265Z" fill="white" stroke="#323232" stroke-width="4" stroke-linecap="round" stroke-linejoin="round"/>
<path d="M115.457 142.564C107.486 161.282 74.3142 161.538 66.3428 141.282" stroke="#323232" stroke-width="4"/>
<path d="M106.971 164.268H129.086V176.936C129.086 183.026 124.135 187.962 118.029 187.962C111.922 187.962 106.971 183.026 106.971 176.936V164.268Z" fill="white" stroke="#323232" stroke-width="4"/>
<path d="M107.041 170.433H129.016" stroke="#323232" stroke-width="4"/>
<defs>
<filter id="filter0_f_224:848" x="53.3142" y="93.641" width="33.7715" height="29.6411" filterUnits="userSpaceOnUse" color-interpolation-filters="sRGB">
<feFlood flood-opacity="0" result="BackgroundImageFix"/>
<feBlend mode="normal" in="SourceGraphic" in2="BackgroundImageFix" result="shape"/>
<feGaussianBlur stdDeviation="6" result="effect1_foregroundBlur_224:848"/>
</filter>
<filter id="filter1_f_224:848" x="93.9429" y="93.641" width="33.7715" height="29.6411" filterUnits="userSpaceOnUse" color-interpolation-filters="sRGB">
<feFlood flood-opacity="0" result="BackgroundImageFix"/>
<feBlend mode="normal" in="SourceGraphic" in2="BackgroundImageFix" result="shape"/>
<feGaussianBlur stdDeviation="6" result="effect1_foregroundBlur_224:848"/>
</filter>
</defs>
</svg>
