<svg width="180" height="200" viewBox="0 0 180 200" fill="none" xmlns="http://www.w3.org/2000/svg">
<g clip-path="url(#clip0_224:799)">
<path d="M34.9714 72.3618C34.9714 44.6088 57.997 22.1105 86.4 22.1105H93.0857C121.489 22.1105 144.514 44.6088 144.514 72.3618V173.869H34.9714V72.3618Z" fill="#323232"/>
<path d="M100.511 92.9648H79.5997C75.6866 92.9648 72.5144 96.0644 72.5144 99.8879V150.429C72.5144 154.253 75.6866 157.352 79.5997 157.352H100.511C104.424 157.352 107.596 154.253 107.596 150.429V99.8879C107.596 96.0644 104.424 92.9648 100.511 92.9648Z" fill="white" stroke="#323232" stroke-width="4" stroke-linecap="round"/>
<path d="M73.4893 134.489V113.909H108.771C106.114 124.462 90.2689 135.059 73.4893 134.489Z" fill="#7E7E7E" fill-opacity="0.45"/>
<path d="M67.8857 92.7136C67.8857 98.5874 62.4599 103.518 55.5428 103.518C48.6257 103.518 43.2 98.5874 43.2 92.7136C43.2 86.8397 48.6257 81.9095 55.5428 81.9095C62.4599 81.9095 67.8857 86.8397 67.8857 92.7136Z" fill="white" stroke="#323232" stroke-width="4"/>
<path d="M112.629 92.7136C112.629 98.5874 118.054 103.518 124.972 103.518C131.889 103.518 137.314 98.5874 137.314 92.7136C137.314 86.8397 131.889 81.9095 124.972 81.9095C118.054 81.9095 112.629 86.8397 112.629 92.7136Z" fill="white" stroke="#323232" stroke-width="4"/>
<path d="M124.457 87.5683C124.457 98.8507 121.393 107.454 115.707 113.235C110.027 119.009 101.588 122.111 90.5297 122.111C79.4705 122.111 70.8902 119.009 65.072 113.227C59.2514 107.442 56.0571 98.8392 56.0571 87.5683C56.0571 76.2834 59.2622 64.512 65.2006 55.5924C71.1314 46.6848 79.7189 40.7035 90.5297 40.7035C101.336 40.7035 109.786 46.6801 115.581 55.5839C121.384 64.5015 124.457 76.2748 124.457 87.5683Z" fill="white" stroke="#323232" stroke-width="4" stroke-linecap="round"/>
<path d="M90.5143 86.9347C89.5006 90.3578 88.9714 92.1462 88.9714 95.7076C90.3292 96.3417 91.6267 96.5005 93.8572 96.4824" stroke="#323232" stroke-width="4" stroke-linecap="round" stroke-linejoin="round"/>
<path d="M72.3951 92.5754C73.455 92.5754 74.3951 92.0151 75.0616 91.1467C75.7281 90.2789 76.1324 89.091 76.1324 87.79C76.1324 86.4884 75.7281 85.3005 75.0616 84.4327C74.3951 83.5643 73.455 83.004 72.3951 83.004C71.3346 83.004 70.3945 83.5643 69.728 84.4327C69.062 85.3005 68.6572 86.4884 68.6572 87.79C68.6572 89.091 69.062 90.2789 69.728 91.1467C70.3945 92.0151 71.3346 92.5754 72.3951 92.5754Z" fill="#323232" stroke="#323232" stroke-linecap="round"/>
<path d="M73.8597 87.9332C74.5698 87.9332 75.1454 87.3707 75.1454 86.6769C75.1454 85.9831 74.5698 85.4206 73.8597 85.4206C73.1496 85.4206 72.574 85.9831 72.574 86.6769C72.574 87.3707 73.1496 87.9332 73.8597 87.9332Z" fill="white" stroke="#323232"/>
<path d="M109.424 92.5754C110.484 92.5754 111.424 92.0151 112.09 91.1467C112.757 90.2789 113.161 89.091 113.161 87.79C113.161 86.4884 112.757 85.3005 112.09 84.4327C111.424 83.5643 110.484 83.004 109.424 83.004C108.363 83.004 107.423 83.5643 106.757 84.4327C106.091 85.3005 105.686 86.4884 105.686 87.79C105.686 89.091 106.091 90.2789 106.757 91.1467C107.423 92.0151 108.363 92.5754 109.424 92.5754Z" fill="#323232" stroke="#323232" stroke-linecap="round"/>
<path d="M110.888 87.6819C111.456 87.6819 111.917 87.232 111.917 86.6769C111.917 86.1218 111.456 85.6719 110.888 85.6719C110.32 85.6719 109.86 86.1218 109.86 86.6769C109.86 87.232 110.32 87.6819 110.888 87.6819Z" fill="white"/>
<path d="M86.3999 104.271C87.9428 106.114 91.9542 108.693 95.657 104.271" stroke="#323232" stroke-width="4" stroke-linecap="round" stroke-linejoin="round"/>
<g filter="url(#filter0_f_224:799)">
<path d="M70.1999 104.523C72.8982 104.523 75.0856 103.285 75.0856 101.759C75.0856 100.232 72.8982 98.995 70.1999 98.995C67.5016 98.995 65.3142 100.232 65.3142 101.759C65.3142 103.285 67.5016 104.523 70.1999 104.523Z" fill="#FC9D80"/>
</g>
<g filter="url(#filter1_f_224:799)">
<path d="M110.829 104.523C113.527 104.523 115.714 103.285 115.714 101.759C115.714 100.232 113.527 98.995 110.829 98.995C108.13 98.995 105.943 100.232 105.943 101.759C105.943 103.285 108.13 104.523 110.829 104.523Z" fill="#FC9D80"/>
</g>
<path d="M106.374 59.1347C91.9739 79.2352 78.7558 80.7849 54.5144 82.9146C59.0134 52.1578 56.8287 41.206 93.8573 39.6985C123.429 41.4573 122.718 57.092 123.429 82.9146C114.603 78.2301 112.722 75.1161 106.374 59.1347Z" fill="#323232"/>
<path d="M73.1685 143.172C77.3492 146.48 84.2627 147.8 90.7607 147.698C94.0377 147.647 97.2746 147.234 100.101 146.495C102.909 145.762 105.393 144.687 107.09 143.259C107.366 143.028 107.679 143.003 107.868 143.086C121.912 149.251 131.122 155.793 137.405 164.344C143.694 172.904 147.126 183.581 149.406 198.169C149.454 198.471 149.211 198.744 148.905 198.744H30.5852C30.2802 198.744 30.0371 198.47 30.0858 198.168C32.548 182.856 36.6054 172.057 43.2651 163.617C49.9257 155.175 59.2669 148.992 72.4907 143.053C72.6697 142.972 72.9402 142.992 73.1685 143.172Z" fill="white" stroke="#323232" stroke-width="4" stroke-linecap="round" stroke-linejoin="round"/>
<path d="M71.7429 134.673L89.7429 143.97L108.514 134.673V143.97L93.6001 151.356V199.749H85.8858V151.274L71.7429 143.97V134.673Z" fill="#323232"/>
<path d="M85.6846 85.2316C90.4556 83.3693 93.0491 83.3231 97.5132 85.2316" stroke="#323232" stroke-width="4" stroke-linecap="round"/>
<path d="M61.7142 82.8135L57.656 78.9623" stroke="#323232" stroke-width="4"/>
<path d="M120.368 80.6226L124.77 78.7111" stroke="#323232" stroke-width="4"/>
<path fill-rule="evenodd" clip-rule="evenodd" d="M74.4527 73.9046L76.2969 75.7071L61.0237 90.6307L60.3026 89.9262C60.2193 89.6036 60.1489 89.2754 60.0907 88.9417C59.919 87.9553 59.8681 86.9754 59.9272 86.0166L72.3379 73.89C73.0518 73.8402 73.7584 73.8463 74.4527 73.9046Z" fill="white" fill-opacity="0.15"/>
<path d="M85.3719 84.7392C86.4972 91.2025 81.9905 97.3613 75.2791 98.4769C68.5676 99.5924 62.2301 95.2367 61.1043 88.7734C59.9791 82.31 64.4863 76.1512 71.1977 75.0357C77.9091 73.9201 84.2467 78.2759 85.3719 84.7392Z" fill="url(#paint0_linear_224:799)" fill-opacity="0.3" stroke="#323232" stroke-width="4"/>
<path fill-rule="evenodd" clip-rule="evenodd" d="M123.37 87.2422C123.406 86.3643 123.35 85.4704 123.193 84.5709C123.177 84.4779 123.16 84.3854 123.142 84.2935L121.855 83.0367L105.83 98.6955L106.293 99.1482C107.689 99.5407 109.169 99.7156 110.683 99.6382L123.37 87.2422Z" fill="white" fill-opacity="0.15"/>
<path d="M122.179 84.7392C123.305 91.2025 118.798 97.3613 112.086 98.4769C105.375 99.5924 99.0375 95.2367 97.9117 88.7734C96.7864 82.31 101.294 76.1512 108.005 75.0357C114.716 73.9201 121.054 78.2759 122.179 84.7392Z" fill="url(#paint1_linear_224:799)" fill-opacity="0.3" stroke="#323232" stroke-width="4"/>
</g>
<defs>
<filter id="filter0_f_224:799" x="53.3142" y="86.995" width="33.7715" height="29.5276" filterUnits="userSpaceOnUse" color-interpolation-filters="sRGB">
<feFlood flood-opacity="0" result="BackgroundImageFix"/>
<feBlend mode="normal" in="SourceGraphic" in2="BackgroundImageFix" result="shape"/>
<feGaussianBlur stdDeviation="6" result="effect1_foregroundBlur_224:799"/>
</filter>
<filter id="filter1_f_224:799" x="93.9429" y="86.995" width="33.7715" height="29.5276" filterUnits="userSpaceOnUse" color-interpolation-filters="sRGB">
<feFlood flood-opacity="0" result="BackgroundImageFix"/>
<feBlend mode="normal" in="SourceGraphic" in2="BackgroundImageFix" result="shape"/>
<feGaussianBlur stdDeviation="6" result="effect1_foregroundBlur_224:799"/>
</filter>
<linearGradient id="paint0_linear_224:799" x1="71.0249" y1="74.0447" x2="82.9147" y2="99.0284" gradientUnits="userSpaceOnUse">
<stop stop-color="white"/>
<stop offset="1" stop-color="#C0C8FE" stop-opacity="0"/>
</linearGradient>
<linearGradient id="paint1_linear_224:799" x1="107.832" y1="74.0447" x2="119.722" y2="99.0284" gradientUnits="userSpaceOnUse">
<stop stop-color="white"/>
<stop offset="1" stop-color="#C0C8FE" stop-opacity="0"/>
</linearGradient>
<clipPath id="clip0_224:799">
<rect width="180" height="200" fill="white"/>
</clipPath>
</defs>
</svg>
