<svg width="180" height="200" viewBox="0 0 180 200" fill="none" xmlns="http://www.w3.org/2000/svg">
<path d="M100.511 94.8718H79.5997C75.6866 94.8718 72.5144 98.035 72.5144 101.937V153.515C72.5144 157.417 75.6866 160.58 79.5997 160.58H100.511C104.424 160.58 107.596 157.417 107.596 153.515V101.937C107.596 98.035 104.424 94.8718 100.511 94.8718Z" fill="white" stroke="#323232" stroke-width="4" stroke-linecap="round"/>
<path d="M73.4893 137.248V116.245H108.771C106.114 127.015 90.2689 137.83 73.4893 137.248Z" fill="#7E7E7E" fill-opacity="0.45"/>
<path d="M69.4286 92.9728C69.4286 98.9671 64.0029 103.998 57.0858 103.998C50.1687 103.998 44.7429 98.9671 44.7429 92.9728C44.7429 86.9789 50.1687 81.9471 57.0858 81.9471C64.0029 81.9471 69.4286 86.9789 69.4286 92.9728Z" fill="white" stroke="#323232" stroke-width="4"/>
<path d="M112.114 92.9728C112.114 98.9671 117.54 103.998 124.457 103.998C131.374 103.998 136.8 98.9671 136.8 92.9728C136.8 86.9789 131.374 81.9471 124.457 81.9471C117.54 81.9471 112.114 86.9789 112.114 92.9728Z" fill="white" stroke="#323232" stroke-width="4"/>
<path d="M124.972 90.8354C124.972 101.266 121.923 109.214 116.256 114.563C110.58 119.919 102.129 122.808 91.0441 122.808C79.9597 122.808 71.3665 119.919 65.5515 114.555C59.7488 109.202 56.5715 101.254 56.5715 90.8354C56.5715 80.3949 59.7658 69.4995 65.6893 61.24C71.6005 52.9979 80.1886 47.4232 91.0441 47.4232C101.896 47.4232 110.345 52.9943 116.12 61.2308C121.909 69.4877 124.972 80.3851 124.972 90.8354Z" fill="white" stroke="#323232" stroke-width="4" stroke-linecap="round"/>
<path d="M90.9474 89.9872C89.9873 94.2887 89.4858 96.5364 89.4858 101.012C90.7721 101.809 92.0017 102.008 94.1144 101.986" stroke="#323232" stroke-width="4" stroke-linecap="round" stroke-linejoin="round"/>
<path d="M72.9095 93.6139C73.9694 93.6139 74.9095 93.0421 75.576 92.1559C76.2425 91.2703 76.6468 90.058 76.6468 88.7303C76.6468 87.4021 76.2425 86.1898 75.576 85.3041C74.9095 84.418 73.9694 83.8462 72.9095 83.8462C71.849 83.8462 70.9089 84.418 70.2424 85.3041C69.5764 86.1898 69.1716 87.4021 69.1716 88.7303C69.1716 90.058 69.5764 91.2703 70.2424 92.1559C70.9089 93.0421 71.849 93.6139 72.9095 93.6139Z" fill="#323232" stroke="#323232" stroke-linecap="round"/>
<path d="M74.3741 88.8764C75.0842 88.8764 75.6598 88.3024 75.6598 87.5943C75.6598 86.8862 75.0842 86.3123 74.3741 86.3123C73.664 86.3123 73.0884 86.8862 73.0884 87.5943C73.0884 88.3024 73.664 88.8764 74.3741 88.8764Z" fill="white" stroke="#323232"/>
<path d="M109.938 93.6139C110.998 93.6139 111.938 93.0421 112.605 92.1559C113.271 91.2703 113.675 90.058 113.675 88.7303C113.675 87.4021 113.271 86.1898 112.605 85.3041C111.938 84.418 110.998 83.8462 109.938 83.8462C108.878 83.8462 107.937 84.418 107.271 85.3041C106.605 86.1898 106.2 87.4021 106.2 88.7303C106.2 90.058 106.605 91.2703 107.271 92.1559C107.937 93.0421 108.878 93.6139 109.938 93.6139Z" fill="#323232" stroke="#323232" stroke-linecap="round"/>
<path d="M111.403 88.62C111.971 88.62 112.431 88.1608 112.431 87.5944C112.431 87.0279 111.971 86.5687 111.403 86.5687C110.835 86.5687 110.374 87.0279 110.374 87.5944C110.374 88.1608 110.835 88.62 111.403 88.62Z" fill="white"/>
<path d="M86.4001 107.936C87.943 109.816 91.9544 112.449 95.6573 107.936" stroke="#323232" stroke-width="4" stroke-linecap="round" stroke-linejoin="round"/>
<g filter="url(#filter0_f_458:1631)">
<path d="M71.7429 109.231C74.4412 109.231 76.6286 107.968 76.6286 106.41C76.6286 104.853 74.4412 103.59 71.7429 103.59C69.0446 103.59 66.8572 104.853 66.8572 106.41C66.8572 107.968 69.0446 109.231 71.7429 109.231Z" fill="#FC9D80"/>
</g>
<g filter="url(#filter1_f_458:1631)">
<path d="M112.372 109.231C115.07 109.231 117.257 107.968 117.257 106.41C117.257 104.853 115.07 103.59 112.372 103.59C109.673 103.59 107.486 104.853 107.486 106.41C107.486 107.968 109.673 109.231 112.372 109.231Z" fill="#FC9D80"/>
</g>
<path d="M49.6285 61.4343C48.785 50.1148 51.9428 44.255 61.4571 41.9473C61.4571 41.9473 89.7428 13.9986 114.686 32.4602C139.628 50.9216 124.2 82.3076 124.2 82.3076C118.286 74.3589 115.697 72.7656 116.228 62.7164C94.7092 69.1646 85.7396 67.2548 73.7999 53.9984C72.2473 62.5574 70.4571 65.641 64.2856 69.2307C65.3898 75.5451 58.8856 81.0256 57.0856 82.8205C51.3443 76.5425 50.2575 71.9497 49.6285 61.4343Z" fill="#323232"/>
<path d="M72.8419 139.265C81.1446 153.61 101.25 152.487 107.519 139.395C107.689 139.039 108.074 138.934 108.32 139.046C122.185 145.311 131.289 151.976 137.506 160.677C143.731 169.389 147.138 180.247 149.406 195.054C149.454 195.363 149.211 195.641 148.905 195.641H30.5852C30.2802 195.641 30.0371 195.362 30.0858 195.053C32.5356 179.506 36.5646 168.518 43.1646 159.924C49.7649 151.329 59.0128 145.027 72.0926 138.991C72.3277 138.882 72.6702 138.968 72.8419 139.265Z" fill="white" stroke="#323232" stroke-width="4" stroke-linecap="round" stroke-linejoin="round"/>
<path d="M48.6615 153.694H132.115L137.571 161.899H42.1714L48.6615 153.694Z" fill="#323232" fill-opacity="0.5"/>
<path d="M38.3902 167.54H140.958L144 175.745H36L38.3902 167.54Z" fill="#323232" fill-opacity="0.5"/>
<path d="M32.3821 181.899H146.075L148.114 190.104H30.3428L32.3821 181.899Z" fill="#323232" fill-opacity="0.5"/>
<path d="M84.656 86.98C89.427 85.0795 92.0206 85.0323 96.4846 86.98" stroke="#323232" stroke-width="4" stroke-linecap="round"/>
<path d="M60.6857 84.5123L56.6274 80.582" stroke="#323232" stroke-width="4"/>
<path d="M119.339 82.2765L123.742 80.3257" stroke="#323232" stroke-width="4"/>
<path fill-rule="evenodd" clip-rule="evenodd" d="M73.4241 75.4205L75.2683 77.26L59.9951 92.4897L59.2741 91.7707C59.1907 91.4415 59.1203 91.1066 59.0622 90.7661C58.8904 89.7595 58.8395 88.7595 58.8986 87.781L71.3094 75.4056C72.0232 75.3549 72.7298 75.361 73.4241 75.4205Z" fill="white" fill-opacity="0.15"/>
<path d="M84.3434 86.4775C85.4686 93.0734 80.9619 99.3585 74.2505 100.497C67.5391 101.635 61.2015 97.1903 60.0758 90.5944C58.9505 83.9985 63.4577 77.7133 70.1691 76.5749C76.8805 75.4364 83.2181 79.8816 84.3434 86.4775Z" fill="url(#paint0_linear_458:1631)" fill-opacity="0.3" stroke="#323232" stroke-width="4"/>
<path fill-rule="evenodd" clip-rule="evenodd" d="M122.341 89.0318C122.378 88.1359 122.322 87.2236 122.165 86.3056C122.149 86.2108 122.131 86.1164 122.113 86.0226L120.827 84.74L104.801 100.72L105.264 101.182C106.661 101.583 108.14 101.761 109.654 101.682L122.341 89.0318Z" fill="white" fill-opacity="0.15"/>
<path d="M121.151 86.4775C122.276 93.0734 117.769 99.3585 111.058 100.497C104.346 101.635 98.0089 97.1903 96.8831 90.5944C95.7579 83.9985 100.265 77.7133 106.976 76.5749C113.688 75.4364 120.025 79.8816 121.151 86.4775Z" fill="url(#paint1_linear_458:1631)" fill-opacity="0.3" stroke="#323232" stroke-width="4"/>
<defs>
<filter id="filter0_f_458:1631" x="54.8572" y="91.5897" width="33.7715" height="29.641" filterUnits="userSpaceOnUse" color-interpolation-filters="sRGB">
<feFlood flood-opacity="0" result="BackgroundImageFix"/>
<feBlend mode="normal" in="SourceGraphic" in2="BackgroundImageFix" result="shape"/>
<feGaussianBlur stdDeviation="6" result="effect1_foregroundBlur_458:1631"/>
</filter>
<filter id="filter1_f_458:1631" x="95.4858" y="91.5897" width="33.7715" height="29.641" filterUnits="userSpaceOnUse" color-interpolation-filters="sRGB">
<feFlood flood-opacity="0" result="BackgroundImageFix"/>
<feBlend mode="normal" in="SourceGraphic" in2="BackgroundImageFix" result="shape"/>
<feGaussianBlur stdDeviation="6" result="effect1_foregroundBlur_458:1631"/>
</filter>
<linearGradient id="paint0_linear_458:1631" x1="69.9963" y1="75.5636" x2="82.2849" y2="100.866" gradientUnits="userSpaceOnUse">
<stop stop-color="white"/>
<stop offset="1" stop-color="#C0C8FE" stop-opacity="0"/>
</linearGradient>
<linearGradient id="paint1_linear_458:1631" x1="106.804" y1="75.5636" x2="119.092" y2="100.866" gradientUnits="userSpaceOnUse">
<stop stop-color="white"/>
<stop offset="1" stop-color="#C0C8FE" stop-opacity="0"/>
</linearGradient>
</defs>
</svg>
