<svg width="180" height="200" viewBox="0 0 180 200" fill="none" xmlns="http://www.w3.org/2000/svg">
<path d="M34.9714 73.8461C34.9714 45.5238 57.997 22.5641 86.4 22.5641H93.0857C121.489 22.5641 144.514 45.5238 144.514 73.8461V177.436H34.9714V73.8461Z" fill="#323232"/>
<path d="M100.511 94.8718H79.5997C75.6866 94.8718 72.5144 98.035 72.5144 101.937V153.515C72.5144 157.417 75.6866 160.58 79.5997 160.58H100.511C104.424 160.58 107.596 157.417 107.596 153.515V101.937C107.596 98.035 104.424 94.8718 100.511 94.8718Z" fill="white" stroke="#323232" stroke-width="4" stroke-linecap="round"/>
<path d="M73.4893 137.248V116.245H108.771C106.114 127.015 90.2689 137.83 73.4893 137.248Z" fill="#7E7E7E" fill-opacity="0.45"/>
<path d="M67.8857 94.6154C67.8857 100.61 62.4599 105.641 55.5428 105.641C48.6257 105.641 43.2 100.61 43.2 94.6154C43.2 88.621 48.6257 83.5897 55.5428 83.5897C62.4599 83.5897 67.8857 88.621 67.8857 94.6154Z" fill="white" stroke="#323232" stroke-width="4"/>
<path d="M112.629 94.6154C112.629 100.61 118.054 105.641 124.972 105.641C131.889 105.641 137.314 100.61 137.314 94.6154C137.314 88.621 131.889 83.5897 124.972 83.5897C118.054 83.5897 112.629 88.621 112.629 94.6154Z" fill="white" stroke="#323232" stroke-width="4"/>
<path d="M124.457 89.3646C124.457 100.878 121.393 109.658 115.707 115.557C110.027 121.45 101.588 124.615 90.5297 124.615C79.4705 124.615 70.8902 121.45 65.072 115.549C59.2514 109.646 56.0571 100.867 56.0571 89.3646C56.0571 77.8482 59.2622 65.8354 65.2006 56.7328C71.1314 47.6425 79.7189 41.5385 90.5297 41.5385C101.336 41.5385 109.786 47.6376 115.581 56.7241C121.384 65.8246 124.457 77.8395 124.457 89.3646Z" fill="white" stroke="#323232" stroke-width="4" stroke-linecap="round"/>
<path d="M90.5143 88.718C89.5006 92.2113 88.9714 94.0364 88.9714 97.6708C90.3292 98.3179 91.6267 98.48 93.8572 98.4615" stroke="#323232" stroke-width="4" stroke-linecap="round" stroke-linejoin="round"/>
<path d="M72.3951 94.4744C73.455 94.4744 74.3951 93.9026 75.0616 93.0164C75.7281 92.1308 76.1324 90.9185 76.1324 89.5908C76.1324 88.2626 75.7281 87.0503 75.0616 86.1646C74.3951 85.2785 73.455 84.7067 72.3951 84.7067C71.3346 84.7067 70.3945 85.2785 69.728 86.1646C69.062 87.0503 68.6572 88.2626 68.6572 89.5908C68.6572 90.9185 69.062 92.1308 69.728 93.0164C70.3945 93.9026 71.3346 94.4744 72.3951 94.4744Z" fill="#323232" stroke="#323232" stroke-linecap="round"/>
<path d="M73.8597 89.737C74.5698 89.737 75.1454 89.163 75.1454 88.4549C75.1454 87.7468 74.5698 87.1729 73.8597 87.1729C73.1496 87.1729 72.574 87.7468 72.574 88.4549C72.574 89.163 73.1496 89.737 73.8597 89.737Z" fill="white" stroke="#323232"/>
<path d="M109.424 94.4744C110.484 94.4744 111.424 93.9026 112.09 93.0164C112.757 92.1308 113.161 90.9185 113.161 89.5908C113.161 88.2626 112.757 87.0503 112.09 86.1646C111.424 85.2785 110.484 84.7067 109.424 84.7067C108.363 84.7067 107.423 85.2785 106.757 86.1646C106.091 87.0503 105.686 88.2626 105.686 89.5908C105.686 90.9185 106.091 92.1308 106.757 93.0164C107.423 93.9026 108.363 94.4744 109.424 94.4744Z" fill="#323232" stroke="#323232" stroke-linecap="round"/>
<path d="M110.888 89.4805C111.456 89.4805 111.917 89.0213 111.917 88.4548C111.917 87.8884 111.456 87.4292 110.888 87.4292C110.32 87.4292 109.86 87.8884 109.86 88.4548C109.86 89.0213 110.32 89.4805 110.888 89.4805Z" fill="white"/>
<path d="M86.3999 106.41C87.9428 108.291 91.9542 110.923 95.657 106.41" stroke="#323232" stroke-width="4" stroke-linecap="round" stroke-linejoin="round"/>
<g filter="url(#filter0_f_224:826)">
<path d="M70.1999 106.667C72.8982 106.667 75.0856 105.404 75.0856 103.846C75.0856 102.288 72.8982 101.026 70.1999 101.026C67.5016 101.026 65.3142 102.288 65.3142 103.846C65.3142 105.404 67.5016 106.667 70.1999 106.667Z" fill="#FC9D80"/>
</g>
<g filter="url(#filter1_f_224:826)">
<path d="M110.829 106.667C113.527 106.667 115.714 105.404 115.714 103.846C115.714 102.288 113.527 101.026 110.829 101.026C108.13 101.026 105.943 102.288 105.943 103.846C105.943 105.404 108.13 106.667 110.829 106.667Z" fill="#FC9D80"/>
</g>
<path d="M106.374 60.3477C91.9739 80.8605 78.7558 82.4421 54.5144 84.6154C59.0134 53.2277 56.8287 42.0513 93.8573 40.5128C123.429 42.3077 122.718 58.2631 123.429 84.6154C114.603 79.8349 112.722 76.6569 106.374 60.3477Z" fill="#323232"/>
<path d="M72.8419 139.265C81.1446 153.61 101.25 152.487 107.519 139.395C107.689 139.039 108.074 138.934 108.32 139.046C122.185 145.311 131.289 151.976 137.506 160.677C143.731 169.389 147.138 180.247 149.406 195.054C149.454 195.363 149.211 195.641 148.905 195.641H30.5852C30.2802 195.641 30.0371 195.362 30.0858 195.053C32.5356 179.506 36.5646 168.518 43.1646 159.924C49.7649 151.329 59.0128 145.027 72.0926 138.991C72.3277 138.882 72.6702 138.968 72.8419 139.265Z" fill="white" stroke="#323232" stroke-width="4" stroke-linecap="round" stroke-linejoin="round"/>
<path d="M72.7715 139.487C75.0307 161.21 75.5728 174.03 73.0286 195.128" stroke="#323232" stroke-width="4"/>
<path d="M108.399 139.744C106.14 161.466 105.598 174.287 108.142 195.385" stroke="#323232" stroke-width="4"/>
<path fill-rule="evenodd" clip-rule="evenodd" d="M127.525 166.36C126.641 163.692 122.788 163.692 121.903 166.36L121.562 167.388C121.166 168.582 120.031 169.389 118.751 169.389H117.647C114.784 169.389 113.593 172.979 115.91 174.628L116.803 175.264C117.839 176.001 118.272 177.308 117.876 178.501L117.535 179.53C116.651 182.197 119.767 184.416 122.084 182.767L122.977 182.132C124.013 181.394 125.416 181.394 126.452 182.132L127.344 182.767C129.661 184.416 132.778 182.197 131.893 179.53L131.552 178.501C131.156 177.308 131.59 176.001 132.626 175.264L133.519 174.628C135.835 172.979 134.645 169.389 131.782 169.389H130.677C129.397 169.389 128.262 168.582 127.866 167.388L127.525 166.36ZM124.714 177.431C126.347 177.431 127.67 176.134 127.67 174.535C127.67 172.935 126.347 171.639 124.714 171.639C123.082 171.639 121.759 172.935 121.759 174.535C121.759 176.134 123.082 177.431 124.714 177.431Z" fill="#323232"/>
<defs>
<filter id="filter0_f_224:826" x="53.3142" y="89.0256" width="33.7715" height="29.641" filterUnits="userSpaceOnUse" color-interpolation-filters="sRGB">
<feFlood flood-opacity="0" result="BackgroundImageFix"/>
<feBlend mode="normal" in="SourceGraphic" in2="BackgroundImageFix" result="shape"/>
<feGaussianBlur stdDeviation="6" result="effect1_foregroundBlur_224:826"/>
</filter>
<filter id="filter1_f_224:826" x="93.9429" y="89.0256" width="33.7715" height="29.641" filterUnits="userSpaceOnUse" color-interpolation-filters="sRGB">
<feFlood flood-opacity="0" result="BackgroundImageFix"/>
<feBlend mode="normal" in="SourceGraphic" in2="BackgroundImageFix" result="shape"/>
<feGaussianBlur stdDeviation="6" result="effect1_foregroundBlur_224:826"/>
</filter>
</defs>
</svg>
