<?xml version="1.0" standalone="no"?>
<!DOCTYPE svg PUBLIC "-//W3C//DTD SVG 1.1//EN" "http://www.w3.org/Graphics/SVG/1.1/DTD/svg11.dtd" >
<svg xmlns="http://www.w3.org/2000/svg">
<metadata>Generated by IcoMoon</metadata>
<defs>
<font id="icomoon" horiz-adv-x="1024">
<font-face units-per-em="1024" ascent="960" descent="-64" />
<missing-glyph horiz-adv-x="1024" />
<glyph unicode="&#x20;" horiz-adv-x="512" d="" />
<glyph unicode="&#xe900;" glyph-name="Add-New" d="M160 800v-704h704v704h-704zM224 736h576v-576h-576v576zM480 608v-128h-128v-64h128v-128h64v128h128v64h-128v128h-64z" />
<glyph unicode="&#xe901;" glyph-name="Back" d="M609 823l-352-352-22-23 22-23 352-352 46 46-329 329 329 329-46 46z" />
<glyph unicode="&#xe902;" glyph-name="Calendar" d="M288 832v-32h-128v-704h704v704h-128v32h-64v-32h-320v32h-64zM224 736h64v-32h64v32h320v-32h64v32h64v-64h-576v64zM224 608h576v-448h-576v448zM416 544v-64h64v64h-64zM544 544v-64h64v64h-64zM672 544v-64h64v64h-64zM288 416v-64h64v64h-64zM416 416v-64h64v64h-64zM544 416v-64h64v64h-64zM672 416v-64h64v64h-64zM288 288v-64h64v64h-64zM416 288v-64h64v64h-64zM544 288v-64h64v64h-64z" />
<glyph unicode="&#xe903;" glyph-name="Cancel" d="M512 864c-229.374 0-416-186.626-416-416s186.626-416 416-416c229.374 0 416 186.626 416 416s-186.626 416-416 416zM512 800c194.75 0 352-157.25 352-352s-157.25-352-352-352c-194.75 0-352 157.25-352 352s157.25 352 352 352zM391 615l-46-46 121-121-121-121 46-46 121 121 121-121 46 46-121 121 121 121-46 46-121-121-121 121z" />
<glyph unicode="&#xe904;" glyph-name="Checkmark-Yes" d="M512 832c-211.699 0-384-172.302-384-384s172.301-384 384-384c211.699 0 384 172.302 384 384s-172.301 384-384 384zM512 768c177.11 0 320-142.89 320-320s-142.89-320-320-320c-177.11 0-320 142.89-320 320s142.89 320 320 320zM670.374 576l-200-200-104 104-44.749-44.813 148.749-148.813 244.813 244.813-44.813 44.813z" />
<glyph unicode="&#xe905;" glyph-name="Clock" d="M512 832c-211.75 0-384-172.25-384-384s172.25-384 384-384c211.75 0 384 172.25 384 384s-172.25 384-384 384zM512 768c177.125 0 320-142.875 320-320s-142.875-320-320-320c-177.125 0-320 142.875-320 320s142.875 320 320 320zM480 704v-288h224v64h-160v224h-64z" />
<glyph unicode="&#xe906;" glyph-name="Event-Accepted" d="M288 832v-32h-128v-704h371c38.25-93.374 130.25-160 237-160 140.75 0 256 115.25 256 256 0 106.75-66.626 198.75-160 237v371h-128v32h-64v-32h-320v32h-64zM224 736h64v-32h64v32h320v-32h64v32h64v-64h-576v64zM224 608h576v-162c-10.626 1.374-21.125 2-32 2-140.75 0-256-115.25-256-256 0-10.875 0.626-21.374 2-32h-290v448zM768 384c105.626 0 192-86.374 192-192s-86.374-192-192-192c-105.626 0-192 86.374-192 192s86.374 192 192 192zM874 278l-106-105-74 73-44-44 118-119 150 151-44 44z" />
<glyph unicode="&#xe907;" glyph-name="Expand-Arrow" d="M135 615l-46-46 400-400 23-22 23 22 400 400-46 46-377-377-377 377z" />
<glyph unicode="&#xe908;" glyph-name="Forward" d="M415 823l-46-46 329-329-329-329 46-46 352 352 22 23-22 23-352 352z" />
<glyph unicode="&#xe909;" glyph-name="Menu" d="M128 736v-64h768v64h-768zM128 480v-64h768v64h-768zM128 224v-64h768v64h-768z" />
<glyph unicode="&#xe90a;" glyph-name="Multiply" d="M279 727l-46-46 233-233-233-233 46-46 233 233 233-233 46 46-233 233 233 233-46 46-233-233-233 233z" />
<glyph unicode="&#xe90b;" glyph-name="New-Document" d="M160 800v-704h704v704h-704zM224 736h576v-576h-576v576zM320 640v-64h384v64h-384zM320 480v-64h384v64h-384zM320 320v-64h192v64h-192z" />
<glyph unicode="&#xe90c;" glyph-name="Note" d="M160 800v-704h493l10 9 192 192 9 10v493h-704zM224 736h576v-384h-192v-192h-384v576zM672 288h82l-82-82v82z" />
<glyph unicode="&#xe90d;" glyph-name="Phone" d="M277 864c-16.75 0-33.25-6-47-17l-2-1-1-1-100-103 1-1c-30.875-28.501-40.375-71.125-27-108 0.125-0.25-0.125-0.75 0-1 27.125-77.626 96.499-227.501 232-363 136-136 287.875-202.626 363-232h1c38.875-13 81-3.75 111 22l101 101c26.501 26.499 26.501 72.499 0 99l-130 130-1 2c-26.499 26.501-73.501 26.501-100 0l-64-64c-23.125 11.125-78.25 39.626-131 90-52.374 50-79.125 107.499-89 130l64 64c26.875 26.875 27.374 71.626-1 98l1 1-3 3-129 133-2 1c-13.75 11-30.25 17-47 17zM277 800c2.374 0 4.75-1.125 7-3l131-134c-0.25 0.25 1.875-3.125-2-7l-80-80-15-14 7-20c0 0 36.75-98.374 114-172l7-6c74.374-67.875 162-105 162-105l20-9 95 95c5.499 5.499 4.501 5.499 10 0l131-131c5.501-5.501 5.501-3.501 0-9l-98-98c-14.75-12.626-30.374-15.25-49-9-72.501 28.499-213.374 90.374-339 216-126.626 126.626-192.75 270.25-217 340-4.875 13-1.375 32.25 10 42l2 2 97 99c2.25 1.875 4.626 3 7 3z" />
<glyph unicode="&#xe90e;" glyph-name="Place-Marker" d="M512 864c-123.374 0-224-100.626-224-224 0-36.125 14.25-75.25 33-118s42.626-88 67-130c48.75-84 98-154 98-154l26-38 26 38c0 0 49.25 70 98 154 24.374 42 48.25 87.25 67 130s33 81.875 33 118c0 123.374-100.626 224-224 224zM512 800c88.75 0 160-71.25 160-160 0-16.875-9.75-52.75-27-92s-41.374-83.25-65-124c-34.25-59.125-51.75-84.75-68-109-16.25 24.25-33.75 49.875-68 109-23.626 40.75-47.75 84.75-65 124s-27 75.125-27 92c0 88.75 71.25 160 160 160zM512 704c-35.374 0-64-28.626-64-64s28.626-64 64-64c35.374 0 64 28.626 64 64s-28.626 64-64 64zM349 338c-123.875-22.499-221-71.75-221-146 0-105 193.125-160 384-160s384 55 384 160c0 74.25-97.125 123.501-221 146l-39-59c120.875-17.499 196-57.875 196-87 0-38.25-127.626-96-320-96s-320 57.75-320 96c0 29.125 75.125 69.501 196 87l-39 59z" />
<glyph unicode="&#xe90f;" glyph-name="Plus-Math" d="M480 800v-320h-320v-64h320v-320h64v320h320v64h-320v320h-64z" />
<glyph unicode="&#xe910;" glyph-name="Search" d="M608 864c-176.374 0-320-143.626-320-320 0-76.626 26.875-146.875 72-202l-255-255 46-46 255 255c55.125-45.125 125.374-72 202-72 176.374 0 320 143.626 320 320s-143.626 320-320 320zM608 800c141.75 0 256-114.25 256-256s-114.25-256-256-256c-141.75 0-256 114.25-256 256s114.25 256 256 256z" />
<glyph unicode="&#xe911;" glyph-name="Secured-Letter" d="M96 704v-576h832v576h-832zM234 640h556l-278-185-278 185zM160 612l334-223 18-11 18 11 334 223v-420h-704v420z" />
<glyph unicode="&#xe912;" glyph-name="Tick-Box" d="M128 832v-768h768v506l-64-64v-378h-640v640h634l64 64h-762zM873 727l-361-361-137 137-46-46 160-160 23-22 23 22 384 384-46 46z" />
<glyph unicode="&#xe913;" glyph-name="Train-Ticket" d="M128 736v-32c0-18.125-13.875-32-32-32h-32v-448h32c18.125 0 32-13.875 32-32v-32h768v32c0 18.125 13.875 32 32 32h32v448h-32c-18.125 0-32 13.875-32 32v32h-768zM179 672h493v-64h64v64h109c9.75-24.626 26.374-41.25 51-51v-346c-24.626-9.75-41.25-26.374-51-51h-109v64h-64v-64h-493c-9.75 24.626-26.375 41.25-51 51v346c24.625 9.75 41.25 26.374 51 51zM672 544v-64h64v64h-64zM672 416v-64h64v64h-64z" />
</font>
</defs>
</svg>
